<?xml version="1.0" standalone="no"?>
<!DOCTYPE svg PUBLIC "-//W3C//DTD SVG 20010904//EN"
 "http://www.w3.org/TR/2001/REC-SVG-20010904/DTD/svg10.dtd">
<svg version="1.0" xmlns="http://www.w3.org/2000/svg"
 width="1280.000000pt" height="1280.000000pt" viewBox="0 0 1280.000000 1280.000000"
 preserveAspectRatio="xMidYMid meet">
<metadata>
Created by potrace 1.15, written by Peter Selinger 2001-2017
</metadata>
<g transform="translate(0.000000,1280.000000) scale(0.100000,-0.100000)"
fill="#000000" stroke="none">
<path d="M6130 12231 l-125 -7 130 -3 c122 -3 126 -4 70 -13 -93 -14 -435
-100 -435 -110 0 -4 12 -8 26 -8 14 0 44 -5 67 -11 39 -9 69 -4 322 60 154 39
299 71 323 71 23 0 42 5 42 10 0 6 -31 10 -73 10 -41 0 -107 2 -148 4 -41 2
-130 0 -199 -3z"/>
<path d="M6750 12227 l85 -11 -70 -7 c-38 -3 -95 -13 -125 -22 -30 -9 -127
-32 -215 -52 -144 -32 -351 -93 -382 -113 -13 -8 231 -108 257 -105 8 1 123
15 255 32 294 38 650 52 915 36 l175 -10 97 -58 c164 -97 225 -145 390 -306
113 -110 184 -189 244 -272 96 -133 66 -116 279 -154 50 -9 124 -25 167 -36
42 -10 79 -19 81 -19 8 0 -65 214 -97 283 -14 33 -37 93 -50 135 -14 43 -36
100 -49 127 -14 28 -22 51 -18 53 4 1 90 -32 191 -73 257 -105 600 -285 828
-433 12 -8 22 -11 22 -8 0 10 -331 226 -347 226 -8 0 -39 16 -69 35 -122 78
-416 215 -641 299 -128 47 -237 86 -243 86 -20 0 -19 -4 81 -314 10 -33 19
-66 19 -74 0 -7 -53 37 -117 98 -144 137 -177 162 -373 286 -206 129 -295 170
-402 184 -343 43 -742 53 -975 25 -69 -9 -128 -14 -130 -11 -9 8 149 53 282
81 72 14 155 33 185 40 30 8 66 16 80 18 14 1 -20 8 -75 15 -55 7 -113 15
-130 17 -16 2 -70 6 -120 9 l-90 5 85 -12z"/>
<path d="M5740 12184 c-69 -7 -132 -13 -140 -14 -10 -1 -9 -4 5 -9 15 -6 6
-10 -35 -16 l-55 -8 64 -10 c58 -9 73 -7 175 22 61 17 131 35 156 40 l45 9
-45 0 c-25 -1 -101 -6 -170 -14z"/>
<path d="M7325 12171 c28 -8 27 -9 -15 -10 -53 -3 -155 -23 -166 -34 -4 -4 17
-7 47 -7 78 0 421 -36 509 -54 101 -20 316 -110 440 -185 55 -34 102 -61 104
-61 5 0 -11 80 -19 103 -5 12 -2 17 8 17 22 0 161 -45 270 -86 49 -19 92 -33
94 -30 5 4 -146 66 -262 106 -106 37 -336 100 -366 100 -13 0 -47 9 -74 19
-28 11 -80 25 -115 31 -36 6 -135 28 -220 50 -132 32 -329 67 -235 41z"/>
<path d="M5070 12055 c-123 -33 -332 -104 -483 -164 -90 -36 -94 -37 -76 -15
12 15 11 16 -11 9 -63 -19 -130 -48 -184 -78 -68 -38 -89 -66 -32 -42 19 8 49
15 66 15 17 0 53 11 81 25 47 24 494 181 698 246 164 51 127 54 -59 4z"/>
<path d="M5240 12050 c-47 -16 -152 -49 -235 -75 -82 -26 -242 -83 -353 -128
-196 -79 -203 -82 -175 -94 48 -21 75 -15 224 46 79 32 155 62 169 66 14 4
113 40 220 80 107 39 233 82 280 95 47 13 89 27 95 32 5 4 -25 8 -65 7 -54 0
-99 -9 -160 -29z"/>
<path d="M5425 12001 c-77 -27 -187 -67 -245 -89 -58 -22 -197 -72 -310 -112
-113 -40 -213 -77 -223 -82 -16 -8 -12 -14 34 -43 39 -24 58 -31 73 -25 12 4
104 42 206 83 154 63 295 112 738 261 17 6 32 13 32 16 0 8 -116 40 -142 40
-13 0 -86 -22 -163 -49z"/>
<path d="M5650 11896 c-313 -108 -803 -298 -807 -312 -1 -5 37 -33 85 -62 l86
-53 86 40 c268 124 575 240 816 308 91 25 161 50 157 54 -13 12 -204 89 -222
89 -9 0 -99 -29 -201 -64z"/>
<path d="M7120 11918 c-3 -3 -77 -8 -166 -11 -113 -4 -213 -15 -335 -37 -96
-17 -178 -32 -183 -34 -6 -1 33 -29 85 -61 l94 -58 130 22 c152 26 521 61 649
61 l88 0 135 -132 c101 -99 155 -163 215 -250 89 -132 69 -121 246 -138 57 -5
115 -13 129 -16 35 -9 31 1 -48 112 -106 151 -347 384 -497 481 l-84 54 -226
6 c-125 3 -229 3 -232 1z"/>
<path d="M6040 11740 c-347 -102 -468 -147 -692 -257 -120 -59 -218 -110 -218
-114 0 -10 147 -129 159 -129 7 0 72 32 145 70 248 131 588 265 826 326 74 19
136 36 138 38 4 5 -173 116 -184 115 -5 0 -83 -22 -174 -49z"/>
<path d="M4025 11679 c-123 -60 -158 -80 -152 -85 6 -6 207 92 237 116 35 28
28 25 -85 -31z"/>
<path d="M7160 11674 c-181 -17 -372 -42 -379 -50 -3 -4 0 -9 7 -11 7 -3 53
-37 104 -75 l91 -71 111 17 c61 9 118 16 126 16 9 0 35 -32 59 -70 24 -39 51
-75 61 -80 10 -6 65 -10 122 -11 57 0 127 -4 156 -8 28 -4 52 -5 52 -2 0 21
-153 229 -212 288 -83 84 -61 80 -298 57z"/>
<path d="M4160 11640 c-47 -21 -88 -39 -92 -39 -5 -1 -8 8 -8 20 0 24 8 27
-127 -36 -108 -50 -123 -67 -123 -137 0 -38 -5 -39 234 78 105 52 214 102 243
111 58 18 65 27 31 37 -43 11 -73 5 -158 -34z"/>
<path d="M4240 11546 c-91 -40 -190 -85 -220 -101 -57 -29 -370 -175 -376
-175 -12 0 -2 135 11 160 9 17 13 30 9 30 -18 0 -193 -108 -216 -134 -15 -17
-32 -51 -38 -78 -12 -60 -13 -188 -1 -188 5 0 139 63 298 139 158 77 344 162
413 189 69 28 179 74 245 102 66 29 131 56 145 62 24 9 23 10 -25 38 -28 16
-57 29 -65 29 -8 0 -89 -33 -180 -73z"/>
<path d="M8890 11602 c0 -5 4 -12 9 -17 14 -15 118 -259 162 -380 22 -60 44
-115 50 -121 5 -6 35 -16 66 -23 32 -7 86 -21 121 -33 35 -11 65 -18 67 -17 4
4 -69 182 -87 214 -30 52 -97 190 -93 193 12 12 495 -250 627 -339 32 -22 58
-36 58 -32 -3 69 -470 353 -810 494 -169 69 -170 70 -170 61z"/>
<path d="M6395 11535 c-274 -78 -723 -260 -938 -381 l-49 -27 92 -92 92 -92
136 75 c322 177 517 256 885 358 75 21 137 41 137 45 0 6 -196 160 -202 158
-2 -1 -70 -20 -153 -44z"/>
<path d="M3623 11473 c-46 -26 -83 -50 -83 -54 0 -9 158 79 166 92 7 12 9 13
-83 -38z"/>
<path d="M4575 11490 c-11 -5 -76 -32 -145 -60 -270 -111 -628 -276 -1065
-490 -66 -32 -122 -56 -125 -54 -3 3 -5 56 -5 118 0 108 1 115 35 183 42 84
47 85 -118 -29 -163 -114 -400 -343 -582 -561 -121 -146 -156 -182 -219 -223
-140 -92 -337 -277 -386 -364 -10 -17 -14 -21 102 76 39 32 139 101 221 153
128 79 156 101 185 145 19 28 76 101 128 161 52 61 130 155 173 210 74 93 273
305 287 305 3 0 -7 -26 -22 -58 -38 -78 -49 -157 -38 -271 5 -52 10 -95 12
-97 1 -2 43 20 92 48 50 27 169 85 265 128 96 43 227 103 291 133 63 30 165
76 225 100 60 25 171 73 248 107 76 33 140 59 142 57 2 -2 -24 -23 -59 -47
-317 -222 -579 -448 -838 -722 l-169 -180 29 -37 c43 -54 232 -244 330 -331
81 -72 274 -229 416 -337 38 -30 61 -53 52 -53 -9 0 -62 7 -116 15 -248 37
-636 54 -846 36 -157 -13 -375 -40 -386 -47 -24 -15 -266 -526 -321 -679 -80
-220 -206 -602 -224 -677 -11 -43 -22 -78 -26 -78 -5 0 -8 46 -8 103 0 128 -9
309 -21 452 -5 61 -14 198 -20 305 -6 107 -13 228 -17 267 l-7 73 -128 -80
c-178 -110 -401 -305 -550 -480 -22 -25 -32 -33 -23 -18 9 15 53 94 99 175
113 200 225 377 399 627 126 181 144 213 138 235 -39 134 -63 201 -70 201 -15
0 -130 -177 -130 -199 0 -12 5 -51 11 -88 l12 -68 -130 -200 c-71 -110 -146
-231 -167 -270 -22 -38 -89 -158 -150 -265 -159 -281 -186 -348 -195 -471 -3
-54 -4 -99 -1 -99 3 1 37 46 75 102 87 125 187 234 328 354 86 74 272 204 291
204 5 0 17 -379 20 -645 2 -110 7 -327 11 -483 l8 -283 61 6 c115 12 299 34
301 37 2 2 22 93 45 203 23 110 59 268 81 350 65 253 249 760 357 988 56 117
63 127 89 128 15 0 37 3 48 5 27 6 421 6 465 0 19 -3 64 -7 100 -10 214 -18
200 -16 485 -66 28 -5 131 -30 230 -55 99 -26 189 -49 200 -51 16 -3 28 10 59
63 21 38 92 147 157 244 l118 176 -187 119 c-103 65 -207 133 -232 151 -352
256 -508 377 -639 498 l-64 60 89 83 c503 470 622 565 994 797 69 42 136 84
149 92 l23 15 -38 31 c-132 111 -163 127 -209 107z"/>
<path d="M6735 11246 c-365 -106 -615 -215 -948 -414 l-59 -34 42 -43 42 -43
-36 -48 c-20 -26 -36 -50 -36 -54 0 -8 107 -59 305 -145 72 -31 180 -78 240
-105 116 -51 179 -76 335 -133 109 -40 488 -167 499 -167 4 0 20 22 36 50 l30
49 85 3 85 3 1 70 c1 78 -11 303 -20 380 -11 88 -21 137 -56 260 -5 17 -13 46
-18 65 -14 53 -83 244 -94 256 -5 7 -45 15 -88 19 -44 4 -82 11 -85 15 -3 5
-22 22 -43 38 l-38 30 -179 -52z m161 -311 c24 -90 53 -222 53 -245 0 -8 3
-70 7 -137 l7 -122 -139 49 c-77 26 -175 62 -219 78 -77 29 -406 170 -414 177
-10 10 291 147 464 211 66 25 136 51 155 59 56 23 62 17 86 -70z"/>
<path d="M4750 11152 c-178 -115 -255 -171 -479 -351 -140 -112 -411 -357
-411 -370 1 -7 93 -79 270 -211 120 -90 350 -244 410 -275 19 -10 80 -48 135
-85 55 -37 114 -74 132 -83 l31 -17 83 123 c45 67 91 133 101 146 21 27 19 30
-32 59 -143 80 -205 117 -355 210 -133 82 -283 180 -334 219 -18 13 401 348
633 505 l150 101 -75 69 c-40 37 -78 67 -84 67 -5 0 -84 -48 -175 -107z"/>
<path d="M9412 11243 c2 -5 15 -30 29 -58 14 -27 45 -93 68 -146 l41 -95 88
-28 c48 -16 99 -35 115 -43 15 -7 27 -11 27 -8 0 3 -14 33 -31 66 -16 34 -24
57 -17 53 7 -4 48 -29 90 -56 43 -26 80 -48 83 -48 3 0 5 20 5 44 0 55 13 45
-271 205 -209 117 -235 130 -227 114z"/>
<path d="M7423 11188 c3 -7 17 -44 32 -83 15 -38 33 -86 41 -105 16 -41 79
-251 88 -295 13 -65 16 -83 26 -160 10 -85 19 -195 25 -310 2 -38 4 -73 4 -77
1 -5 27 -8 59 -9 31 0 116 -6 187 -13 72 -8 132 -12 134 -10 7 7 -20 281 -40
404 -12 69 -39 181 -61 250 -46 142 -135 369 -152 386 -11 11 -219 34 -305 34
-30 0 -42 -4 -38 -12z"/>
<path d="M8013 11139 c3 -8 29 -68 57 -133 95 -222 151 -402 176 -561 4 -27 9
-57 10 -65 2 -8 5 -37 8 -65 11 -96 26 -208 29 -211 2 -2 59 -8 128 -13 68 -6
148 -13 178 -17 l53 -7 -6 54 c-39 330 -118 595 -273 915 l-35 72 -72 10 c-39
6 -96 14 -126 17 -30 3 -73 8 -94 12 -31 4 -38 2 -33 -8z"/>
<path d="M8568 11057 c15 -19 115 -239 170 -377 59 -145 88 -251 132 -481 l32
-166 121 -17 c67 -9 164 -24 215 -32 51 -9 95 -14 98 -12 2 3 -21 70 -52 149
-31 79 -71 187 -89 239 -18 52 -43 118 -55 145 -29 68 -91 236 -135 373 -33
100 -40 113 -64 118 -14 3 -43 10 -63 15 -20 5 -87 18 -150 29 -62 11 -126 22
-142 25 -22 4 -26 2 -18 -8z"/>
<path d="M9965 11043 c17 -19 189 -159 205 -167 17 -9 -25 30 -92 85 -51 42
-127 98 -113 82z"/>
<path d="M5180 10982 c-14 -9 -83 -57 -155 -106 -107 -73 -288 -206 -377 -276
-18 -15 -17 -17 24 -40 24 -13 68 -40 98 -60 67 -45 366 -219 397 -231 20 -7
31 5 118 127 52 74 95 136 95 137 0 1 -49 27 -110 57 -60 30 -109 58 -110 62
0 4 47 39 105 78 58 40 107 76 110 81 3 4 -34 49 -82 98 l-88 90 -25 -17z"/>
<path d="M10014 10962 c9 -18 57 -61 114 -101 53 -38 157 -125 229 -193 73
-68 188 -174 255 -237 69 -64 96 -86 62 -50 -33 35 -96 104 -140 153 -63 71
-396 357 -517 445 -18 13 -18 12 -3 -17z"/>
<path d="M9174 10924 c5 -11 25 -68 46 -129 21 -60 60 -162 85 -225 42 -103
117 -294 217 -555 40 -103 18 -90 220 -129 l117 -22 -16 35 c-9 20 -55 133
-104 251 -48 118 -112 269 -142 335 -29 66 -76 178 -102 249 -56 147 -49 141
-203 177 -48 11 -96 23 -106 26 -15 4 -18 2 -12 -13z"/>
<path d="M10060 10858 c0 -3 7 -27 15 -54 15 -47 23 -55 212 -199 196 -149
325 -268 501 -460 l92 -100 -21 60 c-14 42 -34 74 -67 108 -118 122 -416 399
-502 467 -179 142 -230 182 -230 178z"/>
<path d="M2610 10712 c-164 -154 -378 -370 -391 -395 -6 -12 15 3 47 34 33 31
82 73 109 94 28 21 81 74 118 119 38 44 107 120 155 169 48 48 85 87 82 87 -3
-1 -57 -49 -120 -108z"/>
<path d="M9680 10666 c58 -141 156 -362 169 -381 4 -5 16 -32 26 -60 26 -74
165 -399 175 -408 8 -9 224 -66 249 -67 9 0 10 4 3 13 -5 6 -25 48 -45 92 -19
44 -46 105 -60 135 -14 30 -38 84 -52 120 -15 36 -60 134 -101 218 -41 85 -97
207 -125 273 -33 76 -59 124 -73 131 -11 6 -66 26 -122 43 l-101 32 57 -141z"/>
<path d="M3335 10675 c-99 -47 -246 -119 -327 -160 -127 -66 -147 -73 -152
-58 -19 68 -28 147 -22 205 3 38 5 68 3 68 -10 0 -185 -220 -277 -348 l-105
-147 -96 -50 c-99 -52 -287 -163 -293 -174 -3 -4 11 -54 31 -112 l35 -107 -69
-93 c-101 -138 -273 -390 -324 -474 l-24 -40 41 32 c23 18 47 39 54 48 27 32
359 240 368 230 9 -8 40 -259 53 -425 6 -80 12 -146 13 -147 1 -2 31 59 66
135 90 196 275 563 299 594 32 40 202 75 531 109 58 5 120 13 139 15 l34 5
-60 62 c-74 77 -164 182 -227 265 -41 54 -47 67 -38 86 10 23 472 509 518 545
15 12 23 21 18 21 -5 -1 -90 -39 -189 -85z m-704 -445 c2 -62 7 -63 107 -15
95 45 111 46 66 4 -14 -13 -48 -54 -76 -91 l-49 -67 35 -60 35 -60 -98 -32
-97 -31 -65 -104 c-35 -57 -67 -103 -71 -104 -3 0 -12 32 -19 70 -7 39 -14 70
-15 70 -2 0 -37 -21 -79 -46 -42 -25 -78 -45 -79 -43 -2 2 27 48 65 101 l69
97 -20 51 -20 51 83 39 c79 37 84 42 146 130 65 91 80 98 82 40z"/>
<path d="M10100 10651 c0 -25 -1 -25 -46 -6 -20 8 -34 11 -32 7 24 -59 125
-271 178 -375 37 -73 87 -178 110 -233 23 -54 70 -158 105 -230 62 -130 62
-131 106 -143 36 -10 52 -23 88 -72 49 -68 35 -67 179 -12 74 28 105 46 152
90 32 30 62 63 65 73 4 13 -6 38 -28 72 -20 29 -41 67 -49 85 -20 47 -195 237
-348 377 -231 211 -331 293 -452 371 -27 17 -28 17 -28 -4z m330 -352 c84 -71
114 -99 279 -252 83 -77 83 -78 65 -98 -23 -25 -79 -55 -150 -79 l-52 -18 -33
76 c-18 43 -78 164 -132 270 -66 130 -93 190 -80 184 10 -6 57 -43 103 -83z"/>
<path d="M5587 10401 c-29 -33 -177 -242 -177 -249 0 -7 221 -118 485 -243
203 -96 910 -379 919 -368 32 41 176 303 170 308 -5 4 -76 32 -159 61 -329
116 -744 284 -1042 423 -166 77 -183 83 -196 68z"/>
<path d="M10922 10092 c55 -75 170 -222 173 -222 7 0 -108 164 -143 205 -33
36 -53 48 -30 17z"/>
<path d="M10980 9977 c0 -19 46 -102 78 -138 89 -103 103 -126 101 -166 -2
-32 10 -57 71 -153 40 -63 75 -117 78 -120 9 -10 -9 154 -20 174 -17 32 -308
413 -308 403z"/>
<path d="M5160 9792 c-52 -81 -95 -151 -95 -155 0 -10 132 -80 425 -227 213
-107 423 -202 675 -305 72 -29 170 -69 219 -90 49 -20 92 -33 96 -28 13 14
190 316 190 323 0 4 -48 26 -107 48 -450 170 -806 324 -1033 445 -186 99 -236
125 -255 130 -17 5 -35 -17 -115 -141z"/>
<path d="M7635 9920 c-4 -7 -13 -84 -20 -175 -4 -44 -11 -84 -15 -89 -5 -5
-70 11 -155 38 -80 26 -153 46 -162 44 -8 -2 -40 -46 -70 -98 -30 -52 -68
-118 -84 -146 l-29 -51 73 -26 c229 -81 768 -240 778 -229 9 9 47 275 54 372
4 41 10 122 16 179 15 169 18 158 -43 166 -76 9 -339 21 -343 15z"/>
<path d="M8299 9818 c0 -35 -2 -74 -4 -88 -2 -14 -4 -65 -5 -115 -2 -49 -6
-124 -11 -165 -26 -236 -32 -284 -50 -370 -30 -149 -48 -233 -52 -237 -3 -2
-53 11 -113 28 -60 17 -163 46 -229 64 -184 50 -406 118 -555 170 -263 91
-311 107 -315 103 -21 -21 -194 -333 -188 -338 10 -9 522 -182 713 -241 74
-22 212 -61 305 -85 94 -24 190 -51 215 -59 54 -17 483 -126 486 -122 7 9 97
428 114 532 12 72 25 148 30 170 9 43 18 140 29 305 8 121 8 466 1 473 -6 6
-164 23 -287 32 l-83 5 -1 -62z"/>
<path d="M8928 9528 c3 -242 -6 -446 -22 -523 -2 -11 -9 -63 -16 -115 -17
-141 -76 -462 -104 -565 -44 -164 -79 -280 -87 -289 -12 -14 -311 53 -794 179
-246 64 -449 126 -854 261 -239 79 -434 143 -435 142 -2 -6 -31 -55 -173 -298
-138 -236 -143 -246 -124 -260 39 -30 225 -177 310 -244 313 -249 794 -728
1071 -1066 148 -180 190 -234 190 -243 0 -14 -301 -365 -454 -527 -153 -163
-392 -394 -506 -489 -63 -52 -151 -125 -195 -162 -93 -77 -372 -290 -421 -322
-19 -12 -34 -26 -34 -32 0 -5 65 -125 145 -264 80 -140 145 -258 145 -262 0
-22 37 -14 232 47 572 179 785 238 1348 372 211 51 496 112 521 112 27 0 133
-471 179 -801 34 -238 35 -251 35 -617 l0 -353 55 6 c234 27 447 58 453 66 7
9 60 143 101 254 44 120 192 479 219 532 8 15 37 89 65 163 60 160 126 321
232 560 42 96 83 193 90 215 17 54 28 66 59 61 14 -2 53 -7 86 -11 106 -11
138 -15 255 -36 232 -40 503 -119 658 -190 l82 -38 61 127 c34 70 80 177 104
238 l44 112 -74 138 c-90 170 -175 328 -236 437 -25 45 -58 105 -74 132 -15
28 -83 158 -150 290 l-123 241 19 26 c11 15 82 149 158 300 137 271 184 359
266 493 24 39 83 150 132 247 86 171 89 178 76 210 -118 308 -175 438 -188
438 -3 0 -36 -15 -73 -34 -150 -75 -396 -152 -648 -201 -128 -25 -298 -48
-362 -49 l-33 -1 -55 140 c-30 77 -70 178 -88 225 -19 47 -55 135 -81 195 -26
61 -88 218 -137 350 -50 132 -121 314 -158 405 -79 196 -166 424 -176 463 -4
17 -14 29 -28 32 -100 21 -417 65 -469 65 l-22 0 3 -282z m427 -411 c98 -268
173 -466 232 -612 36 -88 82 -207 103 -265 113 -315 273 -709 295 -726 15 -11
133 0 370 37 262 40 477 95 673 171 57 22 105 38 108 35 3 -3 -16 -40 -42 -83
-25 -44 -68 -123 -95 -177 -28 -54 -96 -175 -153 -270 -123 -206 -194 -336
-311 -563 l-87 -171 62 -124 c66 -132 232 -430 285 -514 18 -27 67 -117 110
-200 42 -82 108 -202 146 -266 37 -63 71 -122 74 -131 5 -13 -12 -10 -83 17
-203 75 -412 128 -679 169 -186 29 -391 51 -399 44 -8 -9 -117 -269 -199 -478
-40 -102 -103 -257 -140 -345 -37 -88 -106 -263 -155 -390 -48 -126 -115 -292
-147 -368 l-60 -139 -7 48 c-3 26 -6 93 -6 150 0 189 -78 717 -146 988 -31
125 -138 484 -147 492 -2 2 -30 -1 -63 -7 -32 -6 -100 -16 -150 -24 -100 -14
-296 -50 -359 -65 -22 -5 -65 -14 -95 -20 -30 -5 -82 -16 -115 -24 -33 -7
-121 -28 -195 -45 -294 -68 -714 -181 -878 -237 -90 -30 -98 -39 148 176 242
213 613 588 775 784 77 92 199 247 272 344 l132 175 -32 46 c-139 203 -394
527 -553 701 -259 285 -401 427 -632 634 -79 71 -141 130 -138 133 4 4 163
-43 311 -92 66 -22 238 -71 350 -100 354 -91 530 -134 632 -155 141 -29 289
-58 353 -69 30 -6 93 -18 140 -27 47 -9 94 -15 104 -13 14 3 30 45 72 184 116
387 174 642 209 920 38 309 44 367 45 490 1 121 9 116 65 -38z"/>
<path d="M9440 8214 c0 -19 -77 -332 -116 -474 -50 -181 -65 -228 -117 -370
-61 -165 -50 -149 -96 -139 -38 8 -96 18 -246 39 -33 5 -86 14 -117 19 -117
22 -174 32 -233 42 -56 9 -112 21 -324 71 -46 10 -85 18 -86 16 -2 -2 48 -66
112 -143 113 -139 314 -399 389 -505 104 -148 174 -255 174 -268 0 -35 -421
-595 -617 -819 -40 -46 -73 -87 -73 -90 0 -3 8 -2 18 2 13 5 222 49 337 71 43
8 333 56 385 63 30 5 113 16 183 26 111 16 130 17 137 5 9 -14 29 -77 100
-305 49 -157 131 -474 160 -617 6 -32 13 -58 15 -58 3 0 64 148 155 380 34 85
107 262 162 393 86 201 105 237 122 237 108 -1 427 -43 639 -84 140 -28 137
-40 35 137 -39 67 -125 226 -193 352 -67 127 -132 246 -143 265 l-21 36 35 58
c19 32 85 153 146 270 61 116 144 268 185 338 40 70 76 133 78 140 4 11 -19 9
-107 -9 -101 -21 -230 -43 -328 -57 -56 -8 -282 -30 -314 -30 -27 -1 -30 3
-85 149 -32 83 -107 274 -168 425 -61 151 -125 312 -143 358 -28 73 -40 96
-40 76z m135 -1250 c28 -64 57 -133 65 -155 l14 -39 61 1 c33 0 95 4 138 7 50
5 77 4 77 -3 0 -9 -61 -126 -121 -232 l-24 -42 70 -138 c38 -76 71 -142 73
-146 4 -8 -71 -5 -214 9 l-60 6 -69 -156 c-38 -86 -71 -156 -74 -156 -3 0 -33
70 -66 155 -68 174 -53 162 -173 146 -122 -17 -192 -21 -192 -11 0 6 38 71 85
145 47 74 85 138 85 144 0 12 -72 139 -127 224 -25 38 -42 71 -39 74 3 4 50 1
103 -5 54 -7 122 -13 152 -14 l54 -3 60 153 c33 83 63 152 66 152 3 0 29 -52
56 -116z"/>
<path d="M9664 9675 c6 -25 117 -303 239 -600 24 -60 66 -166 92 -235 27 -69
92 -229 147 -356 54 -128 98 -237 98 -242 0 -21 18 -21 151 -2 243 34 459 88
639 159 58 23 108 45 112 49 10 10 -150 312 -166 312 -7 0 -46 -11 -87 -25
-153 -53 -513 -126 -528 -109 -4 5 -38 90 -76 189 -37 99 -94 241 -125 315
-77 180 -200 486 -200 499 0 13 -46 27 -155 46 -49 8 -103 18 -119 21 -27 6
-28 5 -22 -21z"/>
<path d="M1624 9522 c-36 -55 -53 -92 -58 -127 -5 -37 -33 -95 -103 -219 -140
-247 -259 -504 -241 -521 2 -2 37 67 78 153 89 187 132 262 279 490 116 181
121 194 102 274 -6 25 -9 22 -57 -50z"/>
<path d="M10150 9582 c0 -12 122 -306 199 -480 38 -86 74 -169 80 -184 6 -15
16 -26 23 -23 7 2 51 11 98 19 47 9 134 28 193 42 89 22 107 29 102 43 -3 8
-45 78 -92 154 l-87 139 -35 -6 c-20 -4 -54 -9 -77 -12 l-41 -6 -53 131 c-31
77 -60 132 -69 135 -31 9 -229 56 -235 56 -3 0 -6 -3 -6 -8z"/>
<path d="M11112 9546 c-30 -67 -122 -135 -252 -187 -30 -12 -59 -25 -63 -29
-4 -4 33 -73 83 -153 l91 -147 62 31 c142 72 257 186 257 255 0 19 -148 254
-159 254 -4 0 -13 -11 -19 -24z"/>
<path d="M11384 9424 c8 -17 20 -71 27 -120 10 -74 21 -109 70 -212 33 -68 59
-127 59 -132 0 -6 4 -10 9 -10 4 0 9 27 10 60 1 44 -5 75 -24 121 -42 99 -132
282 -150 304 -15 19 -15 18 -1 -11z"/>
<path d="M4827 9288 c-101 -155 -200 -318 -196 -322 2 -2 77 -30 165 -64 253
-95 493 -200 619 -270 39 -21 117 -65 175 -97 92 -51 304 -181 411 -251 19
-13 38 -24 41 -24 4 0 46 66 94 148 48 81 111 187 140 235 l54 88 -58 26 c-31
14 -113 48 -182 75 -377 151 -466 194 -1071 517 -54 28 -102 51 -108 51 -6 0
-44 -51 -84 -112z"/>
<path d="M1421 9154 c-34 -64 -61 -118 -59 -119 2 -2 32 48 67 111 35 63 61
117 58 120 -2 3 -32 -47 -66 -112z"/>
<path d="M11370 9062 c-48 -92 -108 -148 -255 -237 -15 -9 -8 -28 56 -163 40
-83 76 -152 80 -152 14 0 164 117 192 149 33 40 97 170 97 200 0 18 -110 243
-129 263 -3 4 -22 -23 -41 -60z"/>
<path d="M2881 8999 c-5 -13 -31 -82 -59 -154 -53 -137 -168 -455 -195 -540
-16 -53 -64 -236 -77 -295 -4 -19 -24 -109 -44 -200 -21 -90 -40 -182 -43
-203 -5 -38 -5 -39 23 -33 16 3 81 8 144 12 63 3 116 7 117 8 1 1 16 67 34
146 52 242 56 260 99 423 22 87 61 213 85 281 25 68 45 126 45 129 0 3 9 25
19 50 l19 44 163 -24 c230 -33 437 -76 631 -131 l168 -48 38 60 c21 34 58 93
82 131 24 39 54 87 67 108 14 22 23 40 21 42 -17 16 -436 119 -588 145 -176
30 -430 58 -597 66 l-142 7 -10 -24z"/>
<path d="M11616 8990 c28 -104 32 -127 27 -175 -5 -51 -2 -63 64 -207 39 -84
78 -177 88 -206 16 -51 18 -53 36 -36 10 9 21 24 24 34 7 21 -76 236 -97 253
-9 7 -30 61 -47 120 -17 60 -47 139 -67 175 -19 37 -31 56 -28 42z"/>
<path d="M4460 8707 c-7 -12 -55 -90 -106 -174 l-93 -152 46 -21 c25 -11 48
-20 50 -20 4 0 78 -31 208 -87 284 -123 623 -310 870 -478 66 -46 146 -99 177
-119 l57 -36 111 187 c62 103 108 189 103 190 -4 2 -60 37 -123 79 -185 122
-470 294 -575 348 -103 52 -326 149 -510 223 -104 41 -192 77 -195 78 -4 2
-12 -6 -20 -18z"/>
<path d="M1660 8643 c-125 -83 -333 -282 -432 -412 l-78 -104 0 -91 1 -91 32
40 c40 51 157 161 272 259 l90 76 3 -420 c2 -326 5 -420 15 -420 6 0 50 5 96
12 l84 11 -7 411 c-3 226 -7 491 -7 589 0 97 -4 177 -7 177 -4 0 -32 -16 -62
-37z"/>
<path d="M11630 8637 c0 -30 -79 -167 -127 -220 -20 -23 -60 -59 -88 -81 -27
-21 -53 -42 -58 -46 -4 -3 16 -53 44 -111 28 -57 67 -144 86 -194 19 -49 38
-94 43 -98 8 -9 59 70 113 179 20 39 58 106 86 150 28 43 51 84 51 90 0 17
-90 254 -116 306 -27 54 -34 59 -34 25z"/>
<path d="M1127 8478 c-9 -23 -15 -43 -13 -45 2 -2 11 15 20 38 9 23 15 43 13
45 -2 2 -11 -15 -20 -38z"/>
<path d="M3151 8323 c-50 -171 -149 -570 -166 -670 l-7 -43 34 0 c59 1 300 19
304 23 3 2 12 37 20 78 9 41 18 83 20 94 3 11 10 46 16 78 6 31 16 57 22 57 6
0 67 -18 136 -40 117 -37 126 -39 138 -22 8 9 54 87 103 172 77 132 88 156 75
166 -25 18 -361 110 -506 139 -74 14 -143 28 -152 31 -13 4 -21 -9 -37 -63z"/>
<path d="M1062 8227 c-37 -90 -117 -355 -110 -362 2 -2 33 63 70 143 53 117
69 164 79 230 6 46 10 85 7 87 -2 3 -23 -42 -46 -98z"/>
<path d="M11900 8190 c-11 -28 -9 -43 26 -155 21 -69 41 -125 45 -125 4 0 10
13 14 29 6 28 -48 255 -65 274 -4 4 -13 -6 -20 -23z"/>
<path d="M4069 8048 c-23 -40 -69 -119 -102 -176 -33 -57 -58 -104 -56 -106 2
-2 78 -36 169 -75 401 -177 764 -391 1132 -669 38 -29 71 -52 73 -50 2 2 45
73 95 158 51 85 100 169 111 186 l19 31 -113 79 c-61 43 -132 93 -157 111
-117 83 -425 265 -580 343 -135 67 -524 240 -541 240 -5 0 -27 -33 -50 -72z"/>
<path d="M11824 8045 c-15 -33 -43 -85 -63 -115 -19 -30 -59 -104 -89 -165
l-55 -110 49 -147 c43 -128 64 -174 64 -138 0 6 50 116 111 245 l112 234 -42
113 c-59 157 -55 153 -87 83z"/>
<path d="M1291 7925 l-133 -130 5 -90 c3 -49 10 -101 15 -114 l9 -25 53 50 52
49 -7 -119 c-7 -104 -6 -118 7 -113 9 3 36 8 61 12 82 13 78 -6 75 320 l-3
290 -134 -130z"/>
<path d="M1015 7898 c-72 -151 -109 -263 -134 -399 -23 -124 -26 -174 -9 -124
52 152 127 332 160 384 39 62 40 68 42 158 2 51 1 93 -1 93 -2 0 -28 -51 -58
-112z"/>
<path d="M6117 7767 c-14 -23 -34 -58 -45 -77 -11 -19 -50 -86 -86 -149 -37
-62 -66 -114 -64 -115 15 -10 111 -88 143 -116 22 -19 65 -55 95 -80 121 -99
277 -245 505 -472 l240 -238 -125 -126 c-181 -183 -489 -459 -690 -619 -96
-76 -177 -140 -179 -142 -5 -3 10 -35 50 -104 14 -25 37 -65 51 -90 82 -144
100 -175 108 -182 4 -5 49 22 98 60 403 304 606 483 944 832 124 128 320 344
326 360 3 9 -166 208 -273 321 -221 235 -314 330 -374 384 -36 32 -102 93
-146 136 -90 86 -394 341 -517 432 l-36 28 -25 -43z"/>
<path d="M12030 7735 c-13 -31 -10 -54 27 -220 13 -57 17 -66 24 -48 5 14 -1
75 -15 160 -21 130 -24 136 -36 108z"/>
<path d="M1019 7577 c-52 -85 -150 -318 -178 -424 -13 -47 -13 -236 -1 -228 4
3 11 20 14 39 4 19 22 84 41 143 29 92 48 129 119 235 l84 127 -5 100 c-3 56
-9 101 -12 101 -3 -1 -31 -42 -62 -93z"/>
<path d="M11967 7570 c-19 -41 -44 -102 -55 -135 -11 -33 -45 -114 -76 -180
l-57 -120 32 -135 c17 -74 34 -139 37 -144 6 -11 63 110 107 229 19 50 47 122
63 160 43 105 44 122 16 257 -13 68 -26 128 -28 133 -2 6 -20 -24 -39 -65z"/>
<path d="M11443 7323 c-55 -109 -128 -247 -162 -308 -34 -60 -107 -202 -163
-314 l-101 -205 88 -175 c48 -97 123 -237 165 -311 42 -74 118 -220 168 -324
51 -104 94 -187 97 -184 7 7 115 291 115 304 0 6 -23 54 -52 105 -47 86 -142
280 -246 502 l-41 87 44 90 c25 49 45 93 45 97 0 14 134 296 196 413 l61 115
-17 55 c-17 54 -88 242 -94 247 -2 2 -48 -86 -103 -194z"/>
<path d="M3714 7435 l-39 -75 -77 0 c-90 0 -81 11 -98 -135 -39 -353 -43 -420
-43 -715 0 -335 29 -715 55 -731 7 -5 43 -9 79 -9 l66 0 39 -75 c21 -41 44
-75 50 -75 6 0 49 15 95 34 389 157 694 318 994 524 61 42 139 96 175 120 36
25 75 55 88 67 l23 22 -19 34 c-11 19 -31 54 -45 78 l-24 44 44 72 c23 40 43
76 43 81 0 5 -33 34 -72 64 -290 217 -513 364 -729 483 -178 97 -532 267 -558
267 -4 0 -25 -34 -47 -75z m260 -479 c164 -87 262 -147 411 -247 194 -132 224
-153 225 -160 0 -7 -194 -136 -330 -219 -94 -57 -428 -226 -434 -219 -5 5 -25
475 -21 497 2 9 9 104 16 210 7 110 16 192 22 192 5 0 55 -24 111 -54z"/>
<path d="M3054 7343 l-122 -4 -6 -32 c-12 -57 -37 -316 -50 -519 -15 -235 -4
-572 30 -914 l5 -52 67 -5 c37 -4 113 -9 170 -13 l102 -7 -5 74 c-4 41 -11
126 -16 189 -24 284 -29 521 -14 730 15 207 39 468 50 528 l5 32 -47 -2 c-27
-1 -103 -4 -169 -5z"/>
<path d="M2537 7320 c-64 -4 -119 -9 -121 -11 -5 -6 -35 -311 -51 -519 -10
-138 -12 -234 -5 -380 11 -244 30 -523 37 -530 8 -8 278 -38 285 -31 3 3 2 62
-3 131 -27 393 -31 490 -24 708 3 129 8 239 10 245 2 7 11 89 20 182 9 94 17
179 18 190 2 24 -5 25 -166 15z"/>
<path d="M1051 7220 c-142 -220 -198 -376 -206 -565 -5 -109 -3 -121 30 -237
26 -92 53 -154 107 -255 40 -73 80 -143 90 -155 16 -22 16 -22 28 21 10 38 14
43 35 38 21 -3 25 0 29 27 3 17 8 275 11 574 l6 544 -27 -4 c-26 -3 -29 0 -38
47 l-11 50 -54 -85z m8 -437 c-4 -93 -7 -231 -8 -308 l-2 -140 -25 40 c-36 57
-134 257 -134 275 0 8 29 65 63 125 91 157 101 175 107 175 3 0 2 -75 -1 -167z"/>
<path d="M2070 7294 c-14 -2 -59 -6 -100 -9 l-75 -6 0 -327 c0 -180 -3 -482
-7 -672 l-7 -346 132 -17 c72 -9 145 -17 160 -17 l28 0 -6 83 c-33 477 -36
585 -20 809 13 200 26 341 41 466 l5 42 -63 -1 c-35 -1 -74 -3 -88 -5z"/>
<path d="M1650 7263 c-19 -2 -49 -5 -66 -8 l-31 -5 -7 -518 c-4 -284 -9 -567
-12 -629 -6 -127 -17 -113 104 -134 39 -7 75 -10 78 -7 7 7 23 748 24 1066 l0
242 -27 -2 c-16 0 -44 -3 -63 -5z"/>
<path d="M1321 7229 c-24 -5 -45 -10 -46 -11 -2 -2 -6 -267 -10 -590 l-7 -587
38 -9 c86 -22 104 -24 108 -10 5 14 19 777 19 963 -1 271 0 255 -30 254 -16
-1 -48 -5 -72 -10z"/>
<path d="M12090 7161 c0 -12 -18 -64 -40 -117 -22 -53 -55 -144 -74 -203 -19
-58 -43 -129 -54 -158 -17 -41 -19 -58 -12 -85 13 -44 13 -96 -1 -155 -10 -43
-9 -55 9 -96 12 -26 37 -95 57 -155 21 -59 52 -139 70 -179 18 -39 36 -86 40
-104 9 -38 25 -21 25 26 0 17 4 35 9 40 5 6 16 137 25 291 15 258 15 304 0
545 -8 145 -20 268 -25 274 -5 5 -9 26 -9 46 0 21 -4 41 -10 44 -5 3 -10 -3
-10 -14z m31 -581 c1 -102 -2 -225 -6 -275 l-8 -90 -13 45 c-8 25 -30 93 -50
152 l-36 106 46 137 c25 75 46 146 47 158 1 15 4 10 10 -13 5 -19 10 -118 10
-220z"/>
<path d="M813 7115 c0 -22 2 -30 4 -17 2 12 2 30 0 40 -3 9 -5 -1 -4 -23z"/>
<path d="M5643 6963 l-112 -188 67 -61 c37 -33 96 -85 131 -115 35 -30 66 -59
68 -66 2 -6 -40 -47 -94 -91 -54 -44 -115 -95 -136 -113 l-39 -34 107 -190
c59 -104 109 -192 111 -194 13 -14 704 582 704 607 0 16 -229 240 -380 373
-180 157 -302 259 -312 259 -2 0 -54 -84 -115 -187z"/>
<path d="M11656 6863 c-32 -65 -83 -173 -113 -240 l-55 -122 47 -103 c67 -146
176 -361 180 -356 2 2 19 68 39 148 l34 144 -34 86 -35 85 37 92 36 93 -32
132 c-18 73 -36 139 -40 146 -4 8 -29 -33 -64 -105z"/>
<path d="M799 6829 c0 -24 -4 -97 -8 -162 -4 -64 -4 -139 -1 -165 3 -27 9 39
13 157 3 113 4 207 2 210 -3 2 -5 -16 -6 -40z"/>
<path d="M819 6340 c-2 -36 -2 -85 -1 -110 4 -57 65 -294 98 -380 26 -64 123
-235 130 -227 2 2 8 46 13 98 8 83 7 97 -9 120 -58 83 -141 263 -170 369 -17
63 -38 133 -45 155 l-13 40 -3 -65z"/>
<path d="M791 6284 c0 -11 3 -14 6 -6 3 7 2 16 -1 19 -3 4 -6 -2 -5 -13z"/>
<path d="M803 6175 c0 -22 2 -30 4 -17 2 12 2 30 0 40 -3 9 -5 -1 -4 -23z"/>
<path d="M11836 6148 c-3 -18 -18 -83 -32 -145 l-27 -112 28 -63 c15 -35 40
-88 55 -119 15 -31 33 -73 40 -95 14 -44 77 -174 90 -188 10 -10 13 1 40 124
24 114 25 161 4 202 -9 17 -34 79 -56 137 -45 123 -120 290 -129 291 -4 0 -9
-15 -13 -32z"/>
<path d="M5038 5946 c-389 -259 -550 -344 -1008 -530 -63 -26 -122 -50 -131
-54 -14 -6 -1 -34 75 -172 50 -91 96 -172 101 -181 9 -15 28 -10 175 46 167
63 483 203 575 255 28 15 66 37 85 48 228 126 580 348 580 365 0 4 -35 69 -78
145 -42 75 -88 158 -102 185 -14 26 -29 47 -35 46 -5 -1 -112 -69 -237 -153z"/>
<path d="M821 5969 c-1 -29 44 -267 60 -319 6 -19 39 -109 72 -199 66 -178 72
-182 78 -49 3 57 0 70 -33 128 -37 66 -127 295 -159 405 -11 37 -18 50 -18 34z"/>
<path d="M1250 5718 l0 -113 -51 53 c-28 29 -53 51 -55 49 -2 -2 -9 -49 -14
-105 l-11 -102 30 -43 c16 -24 76 -90 133 -146 l103 -103 7 143 c4 79 6 211 5
293 l-2 150 -60 18 c-33 10 -66 18 -72 18 -10 0 -13 -29 -13 -112z"/>
<path d="M1519 5598 c0 -95 -2 -182 -4 -193 -3 -11 -7 -122 -11 -247 l-7 -227
-61 52 c-130 112 -226 211 -273 282 -26 41 -51 75 -55 75 -5 0 -8 -13 -8 -29
0 -15 -3 -55 -6 -87 l-6 -59 90 -125 c123 -171 463 -505 487 -478 5 5 37 723
42 955 l6 212 -24 5 c-113 23 -136 28 -151 33 -17 4 -18 -9 -19 -169z"/>
<path d="M1864 5668 c0 -71 -15 -379 -24 -478 -5 -58 -12 -188 -15 -290 -4
-160 -34 -590 -40 -598 -1 -1 -40 23 -86 55 -46 31 -148 120 -227 197 -132
130 -208 223 -341 419 -18 27 -35 47 -37 44 -2 -2 1 -53 6 -113 15 -161 38
-216 288 -679 80 -148 184 -333 231 -409 47 -76 85 -146 83 -155 -1 -9 -12
-46 -24 -82 l-20 -65 99 -150 c54 -82 131 -189 170 -239 74 -93 227 -234 323
-298 41 -27 92 -83 195 -214 77 -97 212 -253 300 -345 135 -142 179 -181 280
-250 66 -44 126 -88 133 -96 18 -23 15 -13 -15 64 -23 59 -27 83 -27 169 1 55
5 110 10 121 9 21 11 21 99 -30 173 -100 842 -432 1068 -530 l228 -98 57 37
c31 21 78 53 104 73 l46 35 -181 120 c-244 161 -381 263 -539 405 -166 149
-520 492 -516 502 6 13 153 136 253 211 198 148 477 328 805 519 41 24 77 45
79 47 2 1 -23 44 -56 95 -34 51 -102 161 -153 243 -51 83 -94 152 -96 153 -1
2 -27 -1 -56 -8 -325 -72 -544 -105 -808 -121 -174 -10 -501 -8 -585 5 -16 3
-55 7 -85 11 l-55 6 -67 147 c-60 133 -190 501 -268 756 -44 143 -135 567
-156 723 -3 29 -12 56 -18 61 -9 7 -332 63 -357 62 -3 0 -5 -15 -5 -32z m244
-628 c48 -211 218 -728 308 -931 122 -277 196 -428 213 -433 24 -8 196 -34
366 -57 227 -31 713 -27 953 7 23 4 42 4 42 1 0 -2 -32 -26 -71 -53 -39 -27
-81 -56 -93 -64 -49 -34 -334 -250 -371 -281 -88 -76 -214 -191 -274 -252
l-63 -65 122 -133 c331 -362 493 -513 785 -734 72 -54 135 -102 140 -107 42
-40 -882 403 -1111 533 -67 38 -128 71 -136 74 -13 5 -18 -7 -28 -63 -18 -97
-9 -234 18 -297 l22 -50 -92 95 c-103 106 -321 379 -441 552 -76 111 -79 113
-200 193 -243 158 -435 341 -389 369 5 3 26 46 47 96 l38 90 -130 197 c-137
208 -193 302 -313 523 -40 74 -100 182 -132 239 -32 57 -57 105 -55 107 1 2
33 -36 69 -84 72 -94 154 -177 317 -322 99 -87 298 -230 321 -230 5 0 10 8 10
18 1 52 32 423 44 522 14 111 27 261 42 495 4 61 9 113 10 118 1 4 2 13 4 20
2 17 7 3 28 -93z"/>
<path d="M2170 4250 c0 -60 -60 -513 -69 -523 -10 -11 -240 141 -320 212 -140
123 -145 126 -132 103 46 -86 156 -265 260 -422 138 -208 133 -188 71 -312
l-38 -78 26 -21 c26 -20 179 -117 292 -185 30 -18 64 -39 75 -47 11 -8 65 -81
120 -163 91 -137 253 -352 265 -353 3 -1 4 27 2 61 -3 58 19 203 33 217 6 6
151 -68 280 -143 69 -40 381 -196 391 -196 3 0 -75 84 -174 188 -257 269 -362
387 -362 409 0 18 186 228 272 307 54 49 77 77 67 80 -8 2 -54 9 -104 16 -90
12 -367 57 -395 65 -8 2 -55 16 -104 30 l-88 27 -103 211 c-56 117 -135 286
-175 377 -39 91 -76 169 -81 175 -5 5 -9 -8 -9 -35z m230 -824 l61 -105 86
-31 c123 -44 118 -38 78 -97 -19 -29 -35 -55 -35 -58 0 -10 58 -91 107 -152
25 -31 41 -54 37 -52 -5 2 -48 23 -96 47 -49 24 -92 41 -97 38 -4 -3 -11 -24
-15 -46 -3 -23 -11 -38 -16 -35 -5 3 -36 45 -69 93 -57 83 -64 89 -141 127
-44 21 -80 41 -80 45 1 3 11 25 24 50 l24 44 -71 105 -70 104 39 -23 c22 -13
59 -36 84 -51 51 -32 52 -31 65 55 4 25 11 46 15 46 4 0 36 -47 70 -104z"/>
<path d="M860 5640 c0 -34 61 -311 92 -419 32 -113 89 -264 96 -257 13 13 -23
194 -50 254 -54 118 -95 244 -113 345 -17 93 -25 119 -25 77z"/>
<path d="M11655 5511 l-48 -149 83 -148 c45 -82 96 -174 112 -204 42 -76 44
-77 62 -28 9 23 31 83 49 133 l34 89 -74 141 c-41 77 -92 179 -115 228 -22 48
-44 87 -47 87 -4 0 -29 -67 -56 -149z"/>
<path d="M2437 5614 c-7 -7 -6 -14 29 -194 39 -201 55 -277 91 -424 56 -231
251 -808 282 -835 26 -21 447 -8 696 23 173 21 598 105 631 124 8 5 -23 66
-88 177 -55 94 -101 171 -103 173 -2 2 -29 -3 -62 -12 -197 -51 -278 -68 -453
-95 -241 -37 -448 -57 -460 -45 -7 8 -101 291 -130 394 -28 96 -110 487 -135
638 -4 23 -8 42 -10 42 -13 0 -244 31 -261 35 -12 2 -24 2 -27 -1z"/>
<path d="M12060 5588 c-1 -13 -12 -70 -24 -128 -21 -90 -22 -108 -11 -130 10
-19 15 -21 18 -10 9 29 37 219 37 255 0 38 -20 50 -20 13z"/>
<path d="M2962 5498 c14 -83 86 -414 108 -503 39 -154 63 -225 76 -225 17 0
189 27 289 46 90 17 251 55 337 80 l58 17 -57 106 c-31 58 -68 126 -82 151
-15 25 -33 57 -40 73 -8 15 -19 27 -25 27 -6 0 -67 -16 -136 -34 -69 -19 -127
-30 -130 -26 -3 5 -19 77 -35 159 l-28 150 -41 6 c-67 9 -246 25 -276 25 l-27
0 9 -52z"/>
<path d="M5595 5415 c-128 -84 -358 -227 -435 -269 -264 -145 -641 -313 -877
-390 -29 -10 -53 -20 -53 -22 0 -3 46 -84 101 -180 80 -139 105 -174 118 -169
9 4 52 20 96 35 144 50 268 98 380 145 61 26 124 51 140 57 44 16 379 189 462
239 232 140 333 205 333 212 0 8 -19 43 -67 127 -12 19 -46 80 -78 135 -31 55
-60 103 -63 106 -4 4 -29 -8 -57 -26z"/>
<path d="M11956 5150 c-3 -8 -22 -68 -42 -133 -33 -104 -36 -120 -24 -142 7
-14 16 -25 20 -25 4 0 23 59 43 132 32 117 34 134 22 157 -10 20 -15 22 -19
11z"/>
<path d="M11435 4949 c-50 -105 -91 -197 -93 -204 -2 -7 25 -33 60 -59 104
-77 191 -192 212 -280 7 -28 10 -25 53 65 50 104 103 242 103 266 0 9 -27 54
-60 99 -34 46 -83 127 -111 181 -28 54 -56 104 -62 110 -10 10 -31 -27 -102
-178z"/>
<path d="M5855 4707 c-88 -52 -209 -120 -270 -152 -60 -31 -146 -77 -191 -101
-45 -24 -144 -69 -220 -99 -76 -31 -152 -62 -169 -69 -16 -7 -118 -44 -225
-81 -107 -38 -196 -69 -198 -71 -4 -3 102 -179 198 -325 l75 -117 166 82 c462
226 753 356 954 425 107 37 298 113 309 122 6 6 -238 444 -263 471 -4 4 -78
-34 -166 -85z"/>
<path d="M10210 4748 c-22 -55 -91 -221 -111 -265 -11 -24 -46 -109 -78 -190
-33 -82 -101 -242 -151 -358 -107 -244 -252 -606 -246 -612 5 -5 243 36 273
48 25 9 38 37 129 267 36 90 93 225 126 300 33 75 89 207 124 292 50 122 67
155 81 153 109 -10 395 -70 518 -108 44 -14 83 -25 87 -25 8 0 87 139 135 239
29 59 33 75 22 82 -8 5 -66 27 -129 49 -178 64 -354 105 -593 140 -176 26
-172 26 -187 -12z"/>
<path d="M11799 4674 c-7 -16 -47 -106 -91 -201 -71 -154 -79 -178 -77 -225 3
-64 -8 -133 -28 -171 -8 -16 -12 -31 -10 -33 7 -7 83 145 105 211 11 33 23 79
27 102 4 24 13 47 22 51 12 7 118 254 110 257 -1 0 -12 9 -24 19 -22 18 -22
18 -34 -10z"/>
<path d="M1135 4625 c4 -22 17 -65 30 -95 47 -112 217 -464 255 -530 27 -46
40 -81 41 -107 0 -25 17 -72 53 -143 57 -112 59 -112 71 -13 6 50 5 53 -56
150 -78 123 -159 273 -231 428 -126 269 -170 352 -163 310z"/>
<path d="M8380 4635 c-30 -7 -89 -20 -130 -30 -156 -36 -192 -44 -440 -108
-277 -71 -404 -107 -695 -199 -357 -112 -380 -120 -383 -123 -2 -2 34 -68 79
-147 46 -78 89 -156 97 -171 9 -18 19 -26 30 -23 10 3 123 39 252 80 129 40
327 98 440 129 113 30 266 72 340 92 74 20 144 39 156 42 19 4 22 -3 39 -84 9
-48 19 -98 21 -111 18 -107 24 -146 29 -202 3 -36 11 -103 16 -150 5 -47 12
-173 16 -280 3 -107 7 -196 8 -198 3 -4 326 18 350 24 31 8 34 37 29 284 -8
388 -33 587 -124 1000 -22 101 -40 185 -40 187 0 6 -34 1 -90 -12z"/>
<path d="M11181 4412 c-27 -54 -63 -122 -81 -151 -17 -30 -30 -55 -28 -56 2
-1 30 -18 63 -36 110 -61 153 -98 206 -177 28 -42 53 -79 55 -81 2 -2 33 58
69 134 l66 138 -15 38 c-23 56 -79 139 -123 180 -34 33 -144 109 -157 109 -3
0 -28 -44 -55 -98z"/>
<path d="M1296 4181 c8 -29 84 -170 84 -156 0 6 -21 48 -46 95 -25 47 -42 74
-38 61z"/>
<path d="M10392 4078 c-91 -202 -152 -342 -193 -447 -28 -68 -59 -141 -70
-162 -24 -49 -26 -48 130 -10 131 32 122 23 187 189 20 50 39 94 43 96 3 2 37
-2 76 -9 38 -8 72 -11 75 -8 3 2 46 71 96 151 61 98 88 149 80 154 -17 10
-168 45 -271 63 -49 8 -100 18 -112 20 -18 4 -25 -2 -41 -37z"/>
<path d="M11504 4037 c-16 -34 -46 -90 -66 -125 -34 -55 -38 -70 -38 -127 0
-41 -7 -84 -20 -117 -25 -66 -25 -70 1 -33 68 100 169 345 169 410 0 24 -4 46
-8 49 -5 3 -22 -23 -38 -57z"/>
<path d="M6270 4011 c-80 -31 -192 -74 -250 -96 -295 -108 -496 -196 -859
-374 -79 -39 -149 -72 -154 -74 -8 -2 102 -187 184 -309 7 -11 102 28 251 103
184 92 398 186 568 249 85 32 200 75 255 95 314 117 360 135 357 146 -2 6 -28
55 -59 108 -31 53 -70 121 -87 151 -18 30 -38 56 -46 57 -8 1 -80 -24 -160
-56z"/>
<path d="M10853 3839 l-92 -150 27 -10 c188 -69 237 -98 290 -171 19 -27 35
-48 37 -46 1 2 39 61 84 132 l82 129 -34 56 c-42 68 -106 119 -215 171 -45 22
-83 40 -85 40 -1 -1 -43 -68 -94 -151z"/>
<path d="M7889 3845 c-3 -2 -83 -24 -179 -49 -96 -25 -220 -58 -275 -74 -55
-17 -140 -42 -190 -56 -49 -15 -101 -31 -115 -36 -14 -5 -38 -14 -54 -20 -20
-8 -25 -14 -18 -23 10 -12 92 -155 126 -219 45 -84 31 -82 210 -26 87 27 159
48 161 46 1 -2 6 -41 10 -88 4 -47 9 -98 10 -115 2 -16 4 -38 4 -47 1 -16 14
-18 119 -18 64 0 155 3 201 7 l84 6 -7 131 c-7 136 -26 333 -48 494 -11 81
-22 105 -39 87z"/>
<path d="M11212 3528 c-42 -71 -72 -133 -72 -149 0 -18 -23 -57 -72 -121 -65
-82 -125 -184 -116 -194 4 -3 76 90 261 333 l79 103 4 75 c2 41 0 75 -4 75 -4
0 -40 -55 -80 -122z"/>
<path d="M6530 3430 c-272 -98 -498 -184 -575 -217 -33 -14 -103 -43 -155 -64
-77 -32 -446 -197 -459 -205 -3 -3 89 -142 156 -236 l33 -46 143 65 c326 148
1027 407 1240 459 15 3 27 10 27 15 0 18 -174 309 -184 308 -6 0 -108 -36
-226 -79z"/>
<path d="M10573 3425 c-31 -44 -48 -59 -88 -74 l-50 -18 -80 -175 c-44 -96
-117 -247 -162 -334 -45 -87 -99 -200 -122 -251 -22 -50 -53 -113 -70 -139
-16 -27 -28 -50 -26 -52 2 -2 17 4 34 12 40 21 51 20 51 -4 0 -17 3 -19 19
-10 49 26 352 263 458 358 120 107 356 367 370 407 6 19 28 56 47 81 20 26 36
51 36 56 0 19 -100 106 -147 128 -54 26 -189 70 -215 70 -9 0 -34 -25 -55 -55z
m78 -286 c30 -11 68 -30 83 -43 l28 -22 -123 -116 c-157 -146 -343 -307 -348
-302 -3 3 33 78 79 167 46 89 104 204 129 254 52 105 43 101 152 62z"/>
<path d="M4694 3296 c-39 -24 -120 -69 -180 -101 -132 -71 -340 -197 -449
-273 -162 -112 -285 -204 -285 -212 0 -10 291 -288 415 -397 134 -117 240
-196 440 -330 99 -66 185 -122 191 -126 8 -5 122 78 167 123 5 4 -17 22 -48
40 -65 37 -173 118 -350 261 -160 130 -369 308 -373 318 -1 5 21 23 50 42 29
18 82 52 118 74 36 23 94 58 130 77 36 20 146 80 245 135 99 55 188 102 198
106 14 5 2 29 -83 154 -56 81 -104 149 -108 150 -4 2 -39 -17 -78 -41z"/>
<path d="M10125 3239 c-60 -16 -112 -33 -116 -37 -4 -4 -41 -86 -82 -182 -41
-96 -97 -221 -125 -277 -28 -56 -79 -168 -113 -250 -33 -81 -75 -172 -91 -201
-17 -29 -28 -55 -26 -58 8 -7 221 66 239 82 18 16 79 135 164 324 32 69 77
161 100 205 38 69 65 129 176 383 23 52 25 52 -126 11z"/>
<path d="M10968 3054 c-46 -59 -91 -117 -101 -130 -10 -13 -17 -24 -14 -24 8
0 141 161 176 213 53 78 27 53 -61 -59z"/>
<path d="M9715 3135 c-33 -7 -92 -18 -130 -24 l-70 -12 -59 -152 c-32 -84 -70
-177 -84 -207 -13 -30 -38 -84 -54 -120 -16 -36 -52 -126 -79 -200 -45 -121
-72 -188 -115 -287 -17 -39 -18 -39 89 -13 178 45 168 38 220 148 26 53 53
115 61 137 30 84 95 233 138 320 36 71 107 239 175 413 6 15 -12 14 -92 -3z"/>
<path d="M9225 3044 c-33 -7 -126 -20 -207 -30 -80 -9 -151 -20 -157 -23 -6
-4 -24 -79 -41 -167 -38 -201 -111 -428 -200 -621 -11 -24 -20 -45 -20 -47 0
-3 -22 -42 -50 -88 -27 -46 -50 -86 -50 -89 0 -9 321 46 391 67 18 5 63 105
115 259 20 55 42 120 51 145 8 25 36 90 60 145 25 55 71 170 103 255 32 85 63
167 69 183 6 15 7 26 3 26 -4 -1 -34 -7 -67 -15z"/>
<path d="M10751 2894 c-139 -153 -274 -276 -466 -424 -254 -196 -239 -182
-251 -234 -6 -25 -8 -46 -4 -46 3 0 58 39 122 88 129 96 620 550 660 609 25
36 54 111 46 117 -1 2 -50 -48 -107 -110z"/>
<path d="M6955 2963 c-440 -137 -635 -209 -1192 -443 l-103 -43 35 -47 c19
-26 35 -51 35 -56 0 -4 -17 -26 -37 -47 -37 -37 -38 -39 -18 -53 27 -21 307
-179 435 -247 100 -52 413 -165 644 -232 l89 -25 52 40 c50 38 55 40 124 40
l72 0 33 73 c63 139 127 361 151 527 9 63 19 188 22 278 l6 162 -86 0 -85 0
-34 53 -33 54 -110 -34z m-59 -420 c-13 -161 -19 -201 -47 -323 -40 -167 -46
-182 -73 -174 -177 54 -707 302 -648 304 7 0 65 21 130 47 109 43 616 221 636
222 4 1 5 -34 2 -76z"/>
<path d="M8400 2943 c-85 -7 -157 -17 -161 -21 -3 -4 -14 -74 -23 -156 -18
-159 -65 -357 -116 -497 -18 -46 -38 -104 -47 -129 -8 -25 -37 -87 -64 -138
-27 -51 -49 -95 -49 -98 0 -9 311 24 327 34 6 4 29 41 52 82 134 241 238 573
277 888 6 50 6 52 -17 51 -13 -1 -94 -8 -179 -16z"/>
<path d="M7733 2897 l-153 -10 0 -31 c-1 -82 -23 -323 -35 -376 -3 -14 -8 -41
-11 -60 -24 -142 -98 -367 -165 -504 l-30 -59 158 6 c87 4 168 9 180 13 32 9
100 149 161 329 61 179 99 344 112 480 6 55 13 128 16 163 l7 62 -44 -2 c-24
-1 -113 -6 -196 -11z"/>
<path d="M2170 2826 c36 -43 78 -88 93 -100 15 -11 55 -53 88 -93 60 -73 257
-269 339 -338 25 -20 -7 14 -72 76 -64 63 -163 173 -221 244 -93 116 -143 167
-258 262 -23 19 -14 4 31 -51z"/>
<path d="M4975 2765 c-77 -41 -141 -75 -143 -75 -1 0 -21 -12 -43 -26 -23 -14
-86 -48 -140 -76 -55 -28 -96 -54 -92 -58 101 -88 273 -222 402 -315 l164
-117 91 91 91 92 -26 22 c-14 12 -66 51 -114 86 l-89 64 29 13 c17 8 70 32
118 54 l89 39 -88 128 c-48 71 -92 134 -98 140 -9 10 -43 -4 -151 -62z"/>
<path d="M10555 2606 c-184 -186 -364 -342 -507 -440 -35 -24 -61 -50 -67 -67
-7 -20 -7 -29 0 -29 6 0 7 -5 3 -12 -10 -16 74 43 129 92 26 23 45 45 42 50
-3 4 37 42 88 83 173 140 361 324 469 459 33 41 53 69 46 67 -2 -1 -93 -92
-203 -203z m-440 -441 c-51 -44 -135 -103 -114 -81 29 31 134 115 144 115 6 1
-8 -15 -30 -34z"/>
<path d="M9683 2161 c-23 -11 -73 -30 -112 -42 -67 -22 -70 -24 -87 -68 -9
-25 -43 -94 -75 -153 -31 -60 -56 -108 -53 -108 5 0 299 162 409 225 93 54
119 83 113 130 -3 25 -3 25 -93 -29 -49 -31 -91 -54 -93 -52 -2 2 8 27 22 55
37 71 36 72 -31 42z"/>
<path d="M5425 2066 c-49 -44 -91 -83 -93 -87 -5 -12 241 -143 418 -223 242
-110 437 -184 589 -223 l134 -35 81 56 c102 70 132 94 126 99 -3 2 -57 18
-120 37 -362 104 -750 271 -1010 435 l-35 22 -90 -81z"/>
<path d="M3286 2104 c-10 -25 -7 -166 5 -206 5 -21 20 -49 32 -63 21 -24 208
-137 215 -130 2 2 -1 12 -7 23 -12 23 -15 166 -3 160 9 -4 329 -162 584 -289
l197 -98 55 30 c31 17 56 34 56 37 0 4 -67 36 -148 71 -135 59 -450 206 -682
319 -52 26 -139 73 -193 104 -54 32 -100 58 -102 58 -1 0 -6 -7 -9 -16z"/>
<path d="M9275 2024 c-22 -9 -80 -25 -128 -37 l-89 -22 -42 -105 c-94 -230
-119 -288 -153 -348 -19 -35 -34 -65 -32 -66 9 -9 261 100 434 186 167 84 406
220 512 293 31 20 70 81 60 91 -1 2 -50 -28 -107 -65 -113 -74 -478 -276 -547
-304 -24 -9 -43 -14 -43 -9 0 4 38 83 84 177 74 149 107 227 95 224 -2 0 -22
-7 -44 -15z"/>
<path d="M3184 1902 c4 -6 28 -26 53 -43 60 -42 49 -24 -13 21 -26 18 -44 28
-40 22z"/>
<path d="M8765 1894 c-27 -8 -120 -26 -205 -40 -85 -14 -158 -28 -161 -32 -3
-4 -27 -38 -53 -75 -27 -38 -117 -139 -201 -226 -162 -165 -260 -243 -460
-364 l-110 -66 -158 -11 c-181 -11 -552 1 -737 26 -189 25 -392 55 -439 65
-41 9 -54 6 -175 -42 -141 -56 -142 -57 -134 -64 7 -7 512 -150 578 -164 30
-6 91 -18 135 -25 64 -11 72 -14 38 -15 -23 -1 -45 -6 -49 -12 -5 -8 10 -9 52
-5 33 3 122 11 199 16 120 9 232 26 185 29 -126 8 -237 30 -480 96 -136 37
-135 39 18 25 179 -16 629 -14 837 5 l190 16 130 58 c184 81 462 268 603 405
118 115 115 119 52 -74 -57 -175 -71 -222 -68 -225 2 -2 89 28 193 66 105 38
197 66 205 63 8 -3 11 -2 8 2 -10 10 112 66 129 60 8 -3 12 -2 9 3 -3 4 48 32
114 61 181 80 460 235 600 334 200 142 197 141 -70 -19 -107 -65 -284 -162
-393 -216 -196 -99 -494 -225 -505 -214 -3 3 9 40 27 83 18 42 48 121 67 175
19 53 46 123 60 155 24 54 54 138 54 155 0 10 -27 7 -85 -9z"/>
<path d="M5119 1809 c-41 -34 -78 -65 -82 -69 -12 -11 168 -105 373 -195 227
-100 265 -114 513 -191 l209 -64 95 56 c52 31 93 57 91 59 -2 2 -64 23 -138
45 -392 119 -545 182 -856 353 -67 37 -124 67 -126 67 -3 0 -39 -28 -79 -61z"/>
<path d="M8001 1771 l-154 -16 -49 -73 c-54 -80 -277 -325 -353 -386 l-48 -40
-171 12 c-267 19 -349 29 -527 63 l-165 31 -98 -60 c-74 -45 -93 -61 -79 -66
10 -3 113 -19 228 -35 247 -36 467 -51 730 -51 l190 0 130 86 c108 72 157 113
290 248 165 166 278 312 238 305 -5 -1 -77 -9 -162 -18z"/>
<path d="M3415 1742 c17 -18 167 -112 179 -112 21 0 -30 38 -109 80 -44 24
-75 38 -70 32z"/>
<path d="M3690 1697 c0 -77 4 -81 113 -130 140 -63 137 -62 137 -43 0 22 -15
27 150 -46 50 -22 59 -24 100 -13 l45 12 -85 39 c-47 21 -169 80 -272 131
l-188 93 0 -43z"/>
<path d="M7398 1723 l-136 -4 -47 -74 c-25 -41 -51 -77 -56 -81 -6 -3 -65 2
-133 12 l-123 18 -34 -25 c-19 -14 -67 -45 -106 -68 -40 -24 -73 -45 -73 -46
0 -12 291 -55 500 -76 l125 -12 87 93 c81 86 142 162 189 238 l21 32 -39 -2
c-21 -1 -99 -4 -175 -5z"/>
<path d="M4820 1595 c-47 -30 -84 -57 -83 -60 5 -14 446 -199 618 -259 99 -35
228 -82 288 -105 59 -22 113 -41 120 -41 6 0 61 21 121 47 93 40 106 48 85 54
-13 4 -75 22 -137 39 -178 49 -577 211 -804 325 -59 30 -111 55 -115 54 -5 0
-46 -25 -93 -54z"/>
<path d="M3730 1567 c0 -6 52 -37 175 -102 70 -38 86 -43 70 -25 -16 18 -123
76 -237 128 -5 2 -8 1 -8 -1z"/>
<path d="M4567 1450 l-58 -28 113 -47 c62 -26 181 -74 263 -105 83 -32 218
-85 300 -118 219 -88 291 -106 363 -92 93 18 98 21 79 32 -10 5 -101 40 -205
78 -275 101 -594 222 -702 267 l-95 40 -58 -27z"/>
<path d="M4405 1389 c-11 -4 -32 -8 -47 -8 -16 -1 -28 -4 -28 -8 0 -22 478
-210 811 -320 97 -32 113 -35 175 -28 l69 7 -255 88 c-140 48 -336 122 -435
165 -254 109 -267 114 -290 104z"/>
<path d="M4144 1361 c40 -42 251 -135 239 -106 -3 8 -3 15 -1 15 3 0 88 -34
189 -76 101 -42 220 -87 264 -101 119 -38 319 -92 324 -88 5 6 -16 14 -279
110 -129 47 -325 121 -435 165 -110 44 -210 80 -223 80 -12 0 -39 7 -59 15
-49 21 -51 19 -19 -14z"/>
<path d="M8815 1350 c-3 -6 1 -7 9 -4 18 7 21 14 7 14 -6 0 -13 -4 -16 -10z"/>
<path d="M8580 1259 c-80 -31 -394 -139 -404 -139 -10 0 -7 44 5 79 6 18 9 34
6 38 -3 3 -32 -11 -64 -31 -84 -51 -420 -193 -489 -206 -65 -12 -469 -49 -549
-51 l-50 -1 35 -13 c19 -7 65 -14 102 -14 37 -1 70 -6 73 -11 4 -6 -5 -10 -21
-10 -15 0 -25 -3 -21 -6 12 -12 360 48 382 66 5 4 39 13 75 20 36 6 107 22
158 36 52 13 105 24 118 24 50 0 620 186 702 230 52 27 30 23 -58 -11z"/>
<path d="M5705 1016 c-33 -7 -53 -15 -45 -19 85 -33 259 -81 350 -97 62 -11
115 -22 118 -25 3 -3 -35 -6 -84 -6 -65 -2 -38 -5 106 -14 167 -10 353 -5 367
9 2 1 -45 9 -104 16 -60 7 -160 27 -223 45 -401 114 -385 111 -485 91z"/>
<path d="M5195 990 c11 -5 29 -8 40 -8 16 0 15 2 -5 8 -34 11 -60 11 -35 0z"/>
<path d="M5490 980 c-24 -4 -54 -5 -65 -3 -11 2 -4 -3 15 -12 l35 -14 -40 4
-40 5 44 -15 c67 -22 213 -43 351 -51 69 -3 123 -4 120 -1 -3 3 -65 17 -138
32 -73 14 -156 34 -185 44 -36 12 -66 15 -97 11z"/>
</g>
</svg>
